<svg height="496pt" viewBox="-32 0 496 496" width="496pt" xmlns="http://www.w3.org/2000/svg"><path d="m432 160v-16h-16.472656c-2.960938-26.664062-20.535156-48.945312-44.511719-58.695312 7.929687-7.3125 12.984375-17.695313 12.984375-29.304688v-16c0-22.054688-17.945312-40-40-40s-40 17.945312-40 40v16c0 11.609375 5.054688 21.992188 12.984375 29.304688-16 6.503906-29.121094 18.597656-36.984375 33.855468-7.863281-15.257812-20.984375-27.351562-36.984375-33.855468 7.929687-7.3125 12.984375-17.695313 12.984375-29.304688v-16c0-22.054688-17.945312-40-40-40s-40 17.945312-40 40v16c0 11.609375 5.054688 21.992188 12.984375 29.304688-16 6.503906-29.121094 18.597656-36.984375 33.855468-7.863281-15.257812-20.984375-27.351562-36.984375-33.855468 7.929687-7.3125 12.984375-17.695313 12.984375-29.304688v-16c0-22.054688-17.945312-40-40-40s-40 17.945312-40 40v16c0 11.609375 5.054688 21.992188 12.984375 29.304688-23.976563 9.75-41.550781 32.03125-44.511719 58.695312h-16.472656v16h80v64.40625c-44.785156 4.058594-80 41.769531-80 87.59375 0 48.519531 39.480469 88 88 88s88-39.480469 88-88c0-45.824219-35.214844-83.535156-80-87.59375v-64.40625h89.136719c1.261719 4.871094 3.648437 9.265625 6.863281 12.945312v243.054688h-48v32.808594c-18.230469 3.71875-32 19.871094-32 39.191406v8h208v-8c0-19.3125-13.769531-35.472656-32-39.191406v-32.808594h-48v-243.054688c3.214844-3.679687 5.601562-8.074218 6.863281-12.945312h89.136719v64.40625c-44.785156 4.058594-80 41.769531-80 87.59375 0 48.519531 39.480469 88 88 88s88-39.480469 88-88c0-45.824219-35.214844-83.535156-80-87.59375v-64.40625zm-272 152c0 39.703125-32.296875 72-72 72s-72-32.296875-72-72 32.296875-72 72-72 72 32.296875 72 72zm256 0c0 39.703125-32.296875 72-72 72s-72-32.296875-72-72 32.296875-72 72-72 72 32.296875 72 72zm-96-256v-16c0-13.230469 10.769531-24 24-24s24 10.769531 24 24v16c0 13.230469-10.769531 24-24 24s-24-10.769531-24-24zm24 40c28.152344 0 51.457031 20.910156 55.359375 48h-110.71875c3.902344-27.089844 27.207031-48 55.359375-48zm-152-40v-16c0-13.230469 10.769531-24 24-24s24 10.769531 24 24v16c0 13.230469-10.769531 24-24 24s-24-10.769531-24-24zm24 40c28.152344 0 51.457031 20.910156 55.359375 48h-24.496094c-3.574219-13.769531-15.992187-24-30.863281-24s-27.289062 10.230469-30.863281 24h-24.496094c3.902344-27.089844 27.207031-48 55.359375-48zm-16 56c0-8.824219 7.175781-16 16-16s16 7.175781 16 16-7.175781 16-16 16-16-7.175781-16-16zm-136-96v-16c0-13.230469 10.769531-24 24-24s24 10.769531 24 24v16c0 13.230469-10.769531 24-24 24s-24-10.769531-24-24zm24 40c28.152344 0 51.457031 20.910156 55.359375 48h-110.71875c3.902344-27.089844 27.207031-48 55.359375-48zm214.632812 384h-173.265624c3.304687-9.3125 12.199218-16 22.632812-16h128c10.433594 0 19.328125 6.6875 22.632812 16zm-30.632812-32h-112v-16h112zm-64-32v-233.136719c2.574219.671875 5.222656 1.136719 8 1.136719s5.425781-.464844 8-1.136719v233.136719zm0 0"/><path d="m336 256v8h-8c-13.230469 0-24 10.769531-24 24v8c0 13.230469 10.769531 24 24 24h32c4.414062 0 8 3.585938 8 8v8c0 4.414062-3.585938 8-8 8h-32c-4.414062 0-8-3.585938-8-8h-16c0 13.230469 10.769531 24 24 24h8v8h16v-8h8c13.230469 0 24-10.769531 24-24v-8c0-13.230469-10.769531-24-24-24h-32c-4.414062 0-8-3.585938-8-8v-8c0-4.414062 3.585938-8 8-8h32c4.414062 0 8 3.585938 8 8h16c0-13.230469-10.769531-24-24-24h-8v-8zm0 0"/><path d="m80 256v8h-8c-13.230469 0-24 10.769531-24 24v8c0 13.230469 10.769531 24 24 24h32c4.414062 0 8 3.585938 8 8v8c0 4.414062-3.585938 8-8 8h-32c-4.414062 0-8-3.585938-8-8h-16c0 13.230469 10.769531 24 24 24h8v8h16v-8h8c13.230469 0 24-10.769531 24-24v-8c0-13.230469-10.769531-24-24-24h-32c-4.414062 0-8-3.585938-8-8v-8c0-4.414062 3.585938-8 8-8h32c4.414062 0 8 3.585938 8 8h16c0-13.230469-10.769531-24-24-24h-8v-8zm0 0"/></svg>