<svg height="480pt" viewBox="0 -2 480 480" width="480pt" xmlns="http://www.w3.org/2000/svg"><path d="m240 149.65625c-48.601562 0-88 39.398438-88 88s39.398438 88 88 88 88-39.398438 88-88c-.054688-48.578125-39.421875-87.945312-88-88zm0 160c-39.765625 0-72-32.234375-72-72s32.234375-72 72-72 72 32.234375 72 72c-.042969 39.746094-32.253906 71.953125-72 72zm0 0"/><path d="m456 109.65625h-432c-13.25.015625-23.984375 10.75-24 24v208c.015625 13.25 10.75 23.984375 24 24h432c13.25-.015625 23.984375-10.75 24-24v-208c-.015625-13.25-10.75-23.984375-24-24zm0 16c4.417969.003906 7.996094 3.582031 8 8v47.503906c-28.984375-3.699218-51.804688-26.519531-55.5-55.503906zm-440 8c.003906-4.417969 3.582031-7.996094 8-8h47.5c-3.695312 28.984375-26.515625 51.804688-55.5 55.503906zm8 216c-4.417969-.003906-7.996094-3.582031-8-8v-47.503906c28.984375 3.699218 51.804688 26.519531 55.5 55.503906zm63.59375 0c-3.855469-37.828125-33.765625-67.738281-71.59375-71.59375v-80.8125c37.828125-3.855469 67.738281-33.765625 71.59375-71.59375h304.8125c3.855469 37.828125 33.765625 67.738281 71.59375 71.59375v80.8125c-37.828125 3.855469-67.738281 33.765625-71.59375 71.59375zm376.40625-8c-.003906 4.417969-3.582031 7.996094-8 8h-47.5c3.695312-28.984375 26.515625-51.804688 55.5-55.503906zm0 0"/><path d="m248 197.65625h-16v32h-32v16h32v32h16v-32h32v-16h-32zm0 0"/><path d="m189.65625 48-10.34375-10.34375h124.6875c4.417969.003906 7.996094 3.582031 8 8v16h16v-16c-.015625-13.25-10.75-23.984375-24-24h-124.6875l10.34375-10.34375-11.3125-11.3125-29.65625 29.65625 29.65625 29.65625zm0 0"/><path d="m290.34375 427.3125 10.34375 10.34375h-124.6875c-4.417969-.003906-7.996094-3.582031-8-8v-16h-16v16c.015625 13.25 10.75 23.984375 24 24h124.6875l-10.34375 10.34375 11.3125 11.3125 29.65625-29.65625-29.65625-29.65625zm0 0"/><path d="m152 381.65625h16v16h-16zm0 0"/><path d="m312 77.65625h16v16h-16zm0 0"/></svg>