<svg height="511pt" viewBox="-22 0 511 511.99974" width="511pt" xmlns="http://www.w3.org/2000/svg"><path d="m454.078125 199.164062c-1.417969-3.945312-5.773437-5.996093-9.71875-4.578124-3.945313 1.417968-5.996094 5.769531-4.578125 9.71875 51.164062 142.335937-54.707031 292.503906-205.605469 292.503906-120.472656 0-218.484375-98.007813-218.484375-218.46875 0-56.335938 21.464844-109.855469 60.445313-150.703125 49.253906-51.636719 102.691406-60.828125 125.613281-65.984375 5.101562-1.148438 7.550781-7.007813 4.773438-11.441406l-8.535157-13.632813c-6.246093-9.96875 2.207031-23.328125 14.378907-21.132813 6.304687 1.105469 4.382812.523438 49.070312 48.925782 5.019531 5.433594 4.960938 13.890625-.222656 19.25l-42.4375 43.804687c-9.800782 10.121094-24.570313 2.882813-24.570313-9.21875l.4375-17.171875c.140625-5.355468-5.171875-9.179687-10.210937-7.328125-16.527344 6.070313-21.882813 7.855469-31.238282 12.265625-3.792968 1.789063-5.421874 6.3125-3.632812 10.109375 1.792969 3.796875 6.316406 5.421875 10.109375 3.632813 7.945313-3.746094 13.398437-5.652344 19.496094-7.890625l-.144531 5.597656c-.597657 26.410156 31.328124 40.539063 50.664062 20.574219l42.441406-43.808594c10.839844-11.203125 10.914063-28.820312.46875-40.125l-41.242187-44.671875c-17.671875-19.109375-49.605469-7.132813-50.617188 18.648437-.4375 10.171876 4.089844 16.148438 7.21875 21.144532-118.472656 26.648437-187.457031 125.320312-187.457031 229.15625 0 128.839844 104.828125 233.660156 233.675781 233.660156 161.097657 0 274.710938-160.371094 219.902344-312.835938zm0 0"/><path d="m409.4375 278.339844c0 96.636718-78.621094 175.261718-175.261719 175.261718-96.648437 0-175.277343-78.625-175.277343-175.261718 0-57.296875 28.261718-111.152344 75.601562-144.070313 3.441406-2.394531 4.292969-7.128906 1.898438-10.570312-2.394532-3.445313-7.128907-4.296875-10.570313-1.902344-51.421875 35.757813-82.121094 94.277344-82.121094 156.542969 0 105.015625 85.445313 190.453125 190.46875 190.453125 105.019531 0 190.457031-85.4375 190.457031-190.453125 0-47.484375-17.570312-92.980469-49.476562-128.101563-8.699219-9.574219-1.628906-23.738281 10.210938-23.738281 3.90625 0 7.496093 1.574219 10.109374 4.433594 12.839844 14.046875 23.789063 29.691406 32.542969 46.5 1.9375 3.722656 6.523438 5.167968 10.242188 3.230468 3.722656-1.941406 5.167969-6.527343 3.230469-10.246093-9.363282-17.980469-21.074219-34.714844-34.804688-49.738281-18.03125-19.714844-50.585938-6.25-50.585938 19.78125 0 7.351562 2.773438 14.449218 7.808594 19.992187 29.359375 32.320313 45.527344 74.183594 45.527344 117.886719zm0 0"/><path d="m166.820312 160.152344c30.5625 99.746094 28.78125 93.199218 28.78125 95.585937 0 4.148438-2.308593 7.945313-6.019531 9.898438-56.363281 29.683593-69.464843 105.953125-22.894531 152.417969 40.269531 40.167968 103.246094 36.066406 138.871094-3.71875 2.800781-3.125 2.535156-7.925782-.589844-10.722657-3.125-2.800781-7.929688-2.535156-10.726562.589844-15.242188 17.015625-37.171876 26.855469-60.039063 26.855469-43.683594 0-80.617187-36.890625-80.648437-80.613282 0-29.679687 16.152343-56.738281 42.214843-70.878906h76.824219c36.664062 19.921875 51.480469 63.839844 36.285156 101.214844-1.578125 3.886719.292969 8.320312 4.175782 9.898438 3.886718 1.582031 8.320312-.289063 9.898437-4.175782 18.160156-44.683594.246094-96.859375-43.296875-120.390625-4.640625-2.507812-6.941406-7.871093-5.453125-12.953125l27.335937-93.089844c1.429688-4.863281-2.230468-9.738281-7.289062-9.738281h-120.164062c-5.101563 0-8.757813 4.941407-7.265626 9.820313zm93.03125 104.222656h-50.519531c1.800781-5.179688 2.027344-10.722656.175781-16.757812h50.492188c-1.703125 5.808593-2.0625 10.839843-.148438 16.757812zm24.253907-98.851562-19.644531 66.898437h-59.609376l-20.496093-66.898437zm0 0"/><path d="m234.167969 424.378906c5.492187 0 9.941406-4.453125 9.941406-9.945312v-8.574219h.042969c.742187-.546875 21.277344-4.339844 21.277344-29.894531 0-25.058594-20.589844-29.59375-22.539063-31.058594-9.183594-3.402344-18.238281-5.175781-18.238281-12.914062 0-13.238282 17.371094-7.855469 29.726562-3.878907 8.269532-.507812 18.964844-17.832031-10.269531-22.882812v-8.324219c0-5.488281-4.453125-9.941406-9.941406-9.941406-5.492188 0-9.941407 4.453125-9.941407 9.941406v9.679688c-.140624.097656-19.109374 3.824218-19.109374 26.144531 0 19.292969 13.757812 24.464843 24.816406 28.621093 11.066406 4.15625 15.960937 6.375 15.960937 15.347657 0 11.441406-8.378906 10.328125-13.453125 11.21875-13.042968-.414063-12.34375-10.105469-20.417968-10.105469-5.050782 0-9.117188 5.574219-9.117188 10.1875 0 13.0625 21.109375 18 21.242188 18.066406h.078124v8.367188c0 5.492187 4.453126 9.945312 9.941407 9.945312zm0 0"/></svg>